# This file uses centimeters as units for non-parametric coordinates.

mtllib FloorOutsideBend.mtl
g default
v 0.000000 0.000181 0.000000
v 2.999999 0.000181 0.000000
v 3.000000 0.000181 -3.000000
v -0.000000 0.000181 -2.381997
v 0.571983 0.000181 -3.000000
vt 0.000000 0.000000
vt 1.000000 0.000000
vt 1.000000 1.000000
vt 0.000000 0.793999
vt 0.190661 1.000000
vn 0.000000 1.000000 -0.000000
vn 0.000000 1.000000 -0.000000
vn 0.000000 1.000000 -0.000000
vn 0.000000 1.000000 -0.000000
vn 0.000000 1.000000 -0.000000
s off
g Floor_Outside_Bend
usemtl initialShadingGroup
f 1/1/1 2/2/2 3/3/3 5/5/4 4/4/5
