# This file uses centimeters as units for non-parametric coordinates.

mtllib HighRamp_HP.mtl
g default
v 0.016582 0.019039 -1.097270
v 0.056910 -0.000323 -1.088552
v 0.055966 0.022980 -1.047784
v 0.055050 0.068300 -1.048998
v 0.016089 0.066016 -1.070423
v 0.000000 0.063399 -1.122271
v 2.983418 0.019039 -1.097270
v 3.000000 0.063399 -1.122271
v 2.983412 0.067223 -1.071499
v 2.943090 0.070618 -1.050540
v 2.943072 0.023767 -1.048306
v 2.943090 -0.000323 -1.088552
v 0.015769 2.839652 -2.979277
v 0.000000 2.769657 -2.930361
v 0.015758 2.854986 -2.928347
v 0.053887 2.890384 -2.927052
v 0.053857 2.906435 -2.971712
v 0.053887 2.868330 -3.000000
v 2.984231 2.839652 -2.979277
v 2.946113 2.868330 -3.000000
v 2.948632 2.909203 -2.973968
v 2.950994 2.900314 -2.933660
v 2.985652 2.862076 -2.932295
v 3.000000 2.769657 -2.930361
v 0.017213 0.017203 -2.941280
v 0.000000 0.058759 -2.941231
v 0.017213 0.058733 -2.982787
v 0.058768 0.058769 -3.000000
v 0.058802 0.017209 -2.982788
v 0.058768 -0.000010 -2.941231
v 2.982787 0.017203 -2.941280
v 2.941232 -0.000010 -2.941231
v 2.941201 0.017208 -2.982788
v 2.941236 0.058764 -3.000000
v 2.982789 0.058730 -2.982787
v 3.000000 0.058759 -2.941231
v 0.023571 0.030245 -1.060867
v 2.976048 0.030803 -1.061384
v 0.022642 2.883290 -2.964690
v 2.978378 2.886118 -2.966394
v 0.024863 0.024830 -2.975169
v 2.975138 0.024829 -2.975169
vt 0.379742 0.989329
vt 0.379587 0.133579
vt 0.620257 0.989328
vt 0.639894 0.122863
vt 0.132358 0.008577
vt 0.379491 0.486300
vt 0.620916 0.487541
vt 0.866281 0.235165
vt 0.867642 0.008577
vt 0.620103 0.757358
vt 0.379897 0.745103
vt 0.620103 0.745103
vt 0.620258 0.133868
vt 0.379491 0.510972
vt 0.620509 0.510972
vt 0.379897 0.757358
vt 0.360106 0.122863
vt 0.133719 0.235165
vt 0.375000 0.994953
vt 0.369953 0.122477
vt 0.378015 0.125000
vt 0.378015 1.000000
vt 0.372251 0.126374
vt 0.375000 0.129123
vt 0.630015 0.122492
vt 0.625000 0.994985
vt 0.625000 0.129200
vt 0.627800 0.126400
vt 0.621944 1.000000
vt 0.621944 0.125000
vt 0.125000 0.245938
vt 0.375000 0.504062
vt 0.375000 0.494916
vt 0.128389 0.248305
vt 0.379490 0.498656
vt 0.625000 0.504238
vt 0.875000 0.245762
vt 0.620721 0.498326
vt 0.871921 0.248460
vt 0.625000 0.495381
vt 0.129635 0.002318
vt 0.375000 0.754635
vt 0.375000 0.746893
vt 0.125000 0.003107
vt 0.379871 0.751210
vt 0.625000 0.754636
vt 0.870364 0.002318
vt 0.620129 0.751210
vt 0.875000 0.003105
vt 0.625000 0.746895
vt 0.375000 1.000000
vt 0.375000 0.125000
vt 0.375000 0.125000
vt 0.625000 0.125000
vt 0.625000 0.125000
vt 0.625000 1.000000
vt 0.125000 0.250000
vt 0.375000 0.500000
vt 0.625000 0.500000
vt 0.875000 0.250000
vt 0.125000 0.000000
vt 0.375000 0.750000
vt 0.625000 0.750000
vt 0.875000 0.000000
vn -0.005488 -0.999907 0.012489
vn -0.408522 -0.912727 0.006194
vn -0.406794 -0.913503 -0.005580
vn -0.006182 -0.999939 -0.009194
vn -0.933243 -0.359078 0.010935
vn -0.999503 -0.001079 0.031502
vn -0.999782 -0.011802 -0.017235
vn -0.930769 -0.365573 -0.005094
vn -0.005781 0.548242 0.836300
vn -0.003958 0.037793 0.999278
vn 0.004812 0.038065 0.999264
vn 0.005855 0.548183 0.836338
vn -0.004372 -0.863518 0.504299
vn 0.005498 -0.999909 0.012338
vn 0.004572 -0.863380 0.504534
vn -0.947861 0.171804 0.268407
vn -0.952024 0.179319 0.247982
vn -0.999418 0.034051 -0.001816
vn -0.458822 0.489453 0.741565
vn -0.004369 0.554089 0.832446
vn -0.459819 0.494231 0.737768
vn 0.999538 -0.001922 0.030337
vn 0.933366 -0.358744 0.011463
vn 0.930770 -0.365570 -0.005093
vn 0.999782 -0.011802 -0.017234
vn 0.408542 -0.912716 0.006536
vn 0.006182 -0.999939 -0.009194
vn 0.406795 -0.913503 -0.005579
vn 0.464733 0.486941 0.739535
vn 0.464796 0.490036 0.737448
vn 0.003824 0.554011 0.832501
vn 0.950764 0.166857 0.261163
vn 0.999435 0.033547 -0.002208
vn 0.956242 0.172435 0.236365
vn -0.947006 0.014702 -0.320880
vn -0.939665 -0.002935 -0.342083
vn -0.431487 0.003173 -0.902114
vn -0.004238 0.000110 -0.999991
vn -0.006403 -0.005991 -0.999962
vn -0.428982 -0.003752 -0.903305
vn -0.000592 0.566704 -0.823921
vn -0.000592 0.566704 -0.823921
vn -0.000592 0.566704 -0.823921
vn -0.000592 0.566704 -0.823921
vn -0.001673 0.959509 0.281675
vn -0.001673 0.959509 0.281675
vn -0.001673 0.959509 0.281675
vn -0.001673 0.959509 0.281675
vn 0.004238 0.000096 -0.999991
vn 0.431308 0.002727 -0.902201
vn 0.428988 -0.003751 -0.903302
vn 0.006402 -0.005991 -0.999962
vn 0.945990 0.012624 -0.323950
vn 0.939673 -0.002935 -0.342062
vn -0.003639 -0.923999 -0.382378
vn 0.003639 -0.923999 -0.382378
vn -0.003640 -0.382250 -0.924052
vn 0.003639 -0.382250 -0.924052
vn -0.947286 -0.166408 0.273783
vn -0.418251 -0.816541 0.397903
vn -0.429895 0.074974 0.899760
vn 0.415470 -0.806715 0.420233
vn 0.944792 -0.154451 0.288986
vn 0.415182 0.097334 0.904517
vn -0.587582 0.413877 -0.695308
vn -0.587582 0.413877 -0.695308
vn -0.982290 0.179349 -0.054219
vn -0.587255 0.729844 0.349942
vn -0.587255 0.729844 0.349942
vn 0.983268 0.151047 -0.101829
vn 0.575662 0.351019 -0.738511
vn 0.575662 0.351019 -0.738511
vn 0.653163 0.720108 0.234141
vn 0.653163 0.720108 0.234141
vn 0.653163 0.720108 0.234141
vn 0.653163 0.720108 0.234141
vn -0.324758 -0.888011 -0.325528
vn -0.887904 -0.325200 -0.325379
vn -0.324790 -0.325294 -0.888085
vn 0.887915 -0.325215 -0.325334
vn 0.324769 -0.888023 -0.325486
vn 0.324818 -0.325323 -0.888065
s 1
g rampsteep
usemtl initialShadingGroup
f 2/1/1 1/19/2 25/42/3 30/16/4
s 2
f 1/20/5 6/17/6 26/5/7 25/41/8
s 3
f 4/2/9 3/21/10 11/30/11 10/13/12
s 1
f 3/22/13 2/1/1 12/3/14 11/29/15
s 2
f 6/17/6 5/23/16 15/34/17 14/18/18
s 3
f 5/24/19 4/2/9 16/6/20 15/33/21
s 4
f 8/4/22 7/25/23 31/47/24 36/9/25
s 1
f 7/26/26 12/3/14 32/10/27 31/46/28
s 3
f 10/13/12 9/27/29 23/40/30 22/7/31
s 4
f 9/28/32 8/4/22 24/8/33 23/39/34
s 2
f 14/18/18 13/31/35 27/44/36 26/5/7
s 5
f 13/32/37 18/14/38 28/11/39 27/43/40
s off
f 18/14/41 17/35/42 21/38/43 20/15/44
f 17/35/45 16/6/46 22/7/47 21/38/48
s 5
f 20/15/49 19/36/50 35/50/51 34/12/52
s 4
f 19/37/53 24/8/33 36/9/25 35/49/54
s 1
f 30/16/4 29/45/55 33/48/56 32/10/27
s 5
f 29/45/57 28/11/39 34/12/52 33/48/58
s 3
f 4/2/9 10/13/12 22/7/31 16/6/20
s 5
f 18/14/38 20/15/49 34/12/52 28/11/39
s 1
f 30/16/4 32/10/27 12/3/14 2/1/1
s 4
f 8/4/22 36/9/25 24/8/33
s 2
f 26/5/7 6/17/6 14/18/18
f 5/23/16 6/17/6 1/20/5 37/53/59
s 1
f 1/19/2 2/1/1 3/22/13 37/51/60
s 3
f 3/21/10 4/2/9 5/24/19 37/52/61
s 1
f 11/29/15 12/3/14 7/26/26 38/56/62
s 4
f 7/25/23 8/4/22 9/28/32 38/54/63
s 3
f 9/27/29 10/13/12 11/30/11 38/55/64
s 5
f 17/35/65 18/14/38 13/32/37 39/58/66
s 2
f 13/31/35 14/18/18 15/34/17 39/57/67
s 3
f 15/33/21 16/6/20 17/35/68 39/58/69
s 4
f 23/39/34 24/8/33 19/37/53 40/60/70
s 5
f 19/36/50 20/15/49 21/38/71 40/59/72
s off
f 21/38/73 22/7/74 23/40/75 40/59/76
s 1
f 29/45/55 30/16/4 25/42/3 41/62/77
s 2
f 25/41/8 26/5/7 27/44/36 41/61/78
s 5
f 27/43/40 28/11/39 29/45/57 41/62/79
s 4
f 35/49/54 36/9/25 31/47/24 42/64/80
s 1
f 31/46/28 32/10/27 33/48/56 42/63/81
s 5
f 33/48/58 34/12/52 35/50/51 42/63/82
