# This file uses centimeters as units for non-parametric coordinates.

mtllib LowRamp_LP.mtl
g default
v 0.042091 -0.018703 -0.008321
v 3.041629 -0.001928 -0.008550
v 0.000000 3.000000 -3.000000
v 3.000000 3.000000 -3.000000
v 0.000000 0.000000 -3.000000
v 3.000000 0.000000 -3.000000
vt 0.375000 0.125000
vt 0.625000 0.125000
vt 0.375000 0.500000
vt 0.625000 0.500000
vt 0.375000 0.750000
vt 0.625000 0.750000
vt 0.375000 1.000000
vt 0.625000 1.000000
vt 0.875000 0.000000
vt 0.875000 0.250000
vt 0.125000 0.000000
vt 0.125000 0.250000
vn -0.001944 0.704879 0.709325
vn -0.001944 0.704879 0.709325
vn -0.001944 0.704879 0.709325
vn -0.001944 0.704879 0.709325
vn 0.000000 0.000000 -1.000000
vn 0.000000 0.000000 -1.000000
vn 0.000000 0.000000 -1.000000
vn 0.000000 0.000000 -1.000000
vn 0.002796 -0.999990 -0.003487
vn 0.002796 -0.999990 -0.003487
vn 0.002796 -0.999990 -0.003487
vn 0.002796 -0.999990 -0.003487
vn 0.999903 0.000000 -0.013915
vn 0.999903 0.000000 -0.013915
vn 0.999903 0.000000 -0.013915
vn -0.999901 0.000000 0.014068
vn -0.999901 0.000000 0.014068
vn -0.999901 0.000000 0.014068
s off
g ramp45_LP
usemtl initialShadingGroup
f 1/1/1 2/2/2 4/4/3 3/3/4
f 3/3/5 4/4/6 6/6/7 5/5/8
f 5/5/9 6/6/10 2/8/11 1/7/12
f 2/2/13 6/9/14 4/10/15
f 5/11/16 1/1/17 3/12/18
