# This file uses centimeters as units for non-parametric coordinates.

mtllib OutsideCorner_LP.mtl
g default
v -1.000000 0.004173 -4.000000
v -0.500000 0.004173 -3.500000
v 0.000000 0.004173 -3.000000
v -1.000000 1.004173 -4.000000
v -0.500000 1.004173 -3.500629
v -0.000000 0.700000 -3.000000
v 3.000000 1.000000 -4.000000
v 3.000000 1.000000 -3.500000
v 3.000000 0.700000 -3.000000
v 3.000000 0.000000 -4.000000
v 3.000000 0.000000 -3.500000
v 3.000000 0.000000 -3.000000
v -1.000000 0.008346 0.000000
v -0.500000 0.008346 0.000000
v 0.000000 0.008346 0.000000
v -1.000000 1.008346 0.000000
v -0.500000 1.008346 0.000000
v 0.000000 0.700000 0.000000
vt 0.157398 0.453091
vt 0.157398 0.000000
vt 0.260202 0.000000
vt 0.260202 0.453091
vt 0.000000 0.619779
vt 0.077472 0.542404
vt 0.796529 0.516685
vt 0.796529 0.000000
vt 0.968758 0.000000
vt 0.968758 0.516685
vt 0.619779 0.542307
vt 0.619779 0.619779
vt 0.154945 0.464835
vt 0.619779 0.464835
vt 0.620053 0.516685
vt 0.700605 0.516685
vt 0.700605 1.000000
vt 0.620053 1.000000
vt 0.781158 0.516685
vt 0.781158 1.000000
vt 0.367262 0.000000
vt 0.441839 0.000000
vt 0.441839 0.149154
vt 0.367262 0.149154
vt 0.516416 0.044746
vt 0.516416 0.149154
vt 0.367262 0.298140
vt 0.367262 0.223647
vt 0.516248 0.223647
vt 0.516248 0.298140
vt 0.367262 0.149154
vt 0.471552 0.149154
vt 0.000000 0.000000
vt 0.077472 0.000000
vt 0.154945 0.000000
vt 0.792281 0.516685
vt 0.792281 0.000000
vt 0.364826 0.451734
vt 0.364826 0.000000
vt 0.620053 0.000000
vt 0.782220 0.516685
vt 0.862773 0.516685
vt 0.862773 1.000000
vt 0.782220 1.000000
vt 0.943325 0.516685
vt 0.943325 1.000000
vt 0.262330 0.451734
vt 0.262330 0.000000
vt 0.620053 0.516685
vn 0.001113 0.999999 -0.000557
vn 0.000975 0.989629 0.143646
vn 0.000835 0.962919 0.269788
vn 0.001113 0.999999 -0.000557
vn 0.000500 0.856167 0.516698
vn 0.000500 0.856167 0.516698
vn 1.000000 0.000000 0.000000
vn 1.000000 0.000000 0.000000
vn 1.000000 0.000000 0.000000
vn 1.000000 0.000000 0.000000
vn 1.000000 0.000000 0.000000
vn 1.000000 0.000000 0.000000
vn -0.001113 -0.999999 0.000556
vn -0.001192 -0.999999 0.000596
vn -0.001151 -0.999999 0.000576
vn -0.001113 -0.999999 0.000556
vn -0.001284 -0.999999 0.000642
vn -0.001284 -0.999999 0.000642
vn 0.000000 0.000000 1.000000
vn 0.000000 0.000000 1.000000
vn 0.000000 0.000000 1.000000
vn 0.000000 0.000000 1.000000
vn 0.000000 0.000000 -1.000000
vn 0.000000 0.000000 -1.000000
vn 0.000000 0.000000 -1.000000
vn 0.000000 0.000000 -1.000000
vn 0.000000 0.000000 1.000000
vn 0.000000 0.000000 1.000000
vn 0.000000 0.000000 1.000000
vn 0.000000 0.000000 1.000000
vn 0.000000 0.000000 1.000000
vn 0.000000 0.000000 1.000000
vn 0.000556 0.999999 -0.001113
vn 0.273883 0.961763 -0.000860
vn 0.146617 0.989193 -0.000988
vn 0.000556 0.999999 -0.001113
vn 0.522523 0.852625 -0.000547
vn 0.522523 0.852625 -0.000547
vn -0.000556 -0.999999 0.001113
vn -0.000576 -0.999999 0.001151
vn -0.000596 -0.999999 0.001192
vn -0.000556 -0.999999 0.001113
vn -0.000642 -0.999999 0.001284
vn -0.000642 -0.999999 0.001284
vn 1.000000 0.000000 -0.000000
vn 1.000000 0.000000 -0.000000
vn 1.000000 0.000000 -0.000000
vn 1.000000 0.000000 -0.000000
vn -1.000000 0.000000 0.000000
vn -1.000000 0.000000 0.000000
vn -1.000000 0.000000 0.000000
vn -1.000000 0.000000 0.000000
s 1
g OutsideCorner
usemtl initialShadingGroup
f 4/5/1 5/6/2 8/11/3 7/12/4
f 5/6/2 6/13/5 9/14/6 8/11/3
s 2
f 7/21/7 8/22/8 11/23/9 10/24/10
f 8/22/8 9/25/11 12/26/12 11/23/9
s 3
f 10/15/13 11/16/14 2/17/15 1/18/16
f 11/16/14 12/19/17 3/20/18 2/17/15
s off
f 3/1/19 12/2/20 9/3/21 6/4/22
f 10/7/23 1/8/24 4/9/25 7/10/26
s 4
f 13/27/27 14/28/28 17/29/29 16/30/30
f 14/28/28 15/31/31 18/32/32 17/29/29
s 5
f 16/33/33 17/34/34 5/6/35 4/5/36
f 17/34/34 18/35/37 6/13/38 5/6/35
s 6
f 1/41/39 2/42/40 14/43/41 13/44/42
f 2/42/40 3/45/43 15/46/44 14/43/41
s off
f 15/47/45 3/48/46 6/39/47 18/38/48
f 1/49/49 13/40/50 16/37/51 4/36/52
