# This file uses centimeters as units for non-parametric coordinates.

mtllib OutsideBend_LP.mtl
g default
v 0.095466 0.000000 -2.931551
v 0.441247 0.000000 -2.550326
v 0.789660 0.000000 -2.177100
v 0.096652 1.000000 -2.933519
v 0.442617 1.000000 -2.552615
v 0.789140 0.700000 -2.177100
v 3.000396 1.000000 -3.999665
v 3.000416 1.000000 -3.500000
v 2.999568 0.700000 -3.000335
v 2.999604 0.000000 -3.999665
v 2.999584 0.000000 -3.500000
v 3.000432 0.000000 -3.000335
v -1.000000 0.000000 0.000000
v -0.501290 0.000000 0.000000
v -0.006489 0.000000 0.003789
v -1.000000 1.000000 0.000000
v -0.501242 1.000000 0.000000
v -0.006491 0.700000 0.003789
v 0.096652 1.000000 -2.933519
v 0.442617 1.000000 -2.552615
v 0.789140 0.700000 -2.177100
v 0.095466 0.000000 -2.931551
v 0.441247 0.000000 -2.550326
v 0.789660 0.000000 -2.177100
v 1.398179 1.000000 -3.724218
v 1.397514 0.000000 -3.724218
v 1.589336 0.000000 -3.247423
v 1.781514 0.000000 -2.772892
v 1.780745 0.700000 -2.772892
v 1.590676 1.000000 -3.249007
v 0.700127 1.000000 -3.399992
v 0.699585 0.000000 -3.399992
v 0.970567 0.000000 -2.954451
v 1.246154 0.000000 -2.521771
v 1.245498 0.700000 -2.521771
v 0.972362 1.000000 -2.957395
v 2.170935 0.000000 -3.917458
v 2.171694 1.000000 -3.917458
v 2.275659 1.000000 -3.424203
v 2.377802 0.700000 -2.931721
v 2.378646 0.000000 -2.931721
v 2.274862 0.000000 -3.424203
v -0.741990 1.000000 -1.626102
v -0.742411 0.000000 -1.625492
v -0.286631 0.000000 -1.426795
v 0.167216 0.000000 -1.223862
v 0.166980 0.700000 -1.223862
v -0.286007 1.000000 -1.427751
v -0.390577 0.000000 -2.335389
v -0.389795 1.000000 -2.336647
v 0.018676 1.000000 -2.039137
v 0.425790 0.700000 -1.741491
v 0.426168 0.000000 -1.741491
v 0.017685 0.000000 -2.037534
v -0.947022 1.000000 -0.826937
v -0.947078 0.000000 -0.826937
v -0.460901 0.000000 -0.738161
v 0.021689 0.000000 -0.640441
v 0.021578 0.700000 -0.640441
v -0.460592 1.000000 -0.738557
v -0.992228 1.000000 -0.405612
v -0.992245 0.000000 -0.405612
v -0.496857 0.000000 -0.373205
v -0.006608 0.000000 -0.331005
v -0.006641 0.700000 -0.331005
v -0.496687 1.000000 -0.373362
v -0.863896 0.000000 -1.235201
v -0.863618 1.000000 -1.235527
v -0.390099 1.000000 -1.091278
v 0.079654 0.700000 -0.939082
v 0.079825 0.000000 -0.939082
v -0.390560 0.000000 -1.090616
v -0.583548 1.000000 -1.994293
v -0.584143 0.000000 -1.993371
v -0.150136 0.000000 -1.743370
v 0.283006 0.000000 -1.492087
v 0.282701 0.700000 -1.492087
v -0.149328 1.000000 -1.744650
v -0.163384 0.000000 -2.648790
v -0.162400 1.000000 -2.650400
v 0.216543 1.000000 -2.309006
v 0.595054 0.700000 -1.970273
v 0.595502 0.000000 -1.970273
v 0.215365 0.000000 -2.307061
v 0.385393 1.000000 -3.184699
v 0.383983 0.000000 -3.182377
v 0.693640 0.000000 -2.766292
v 1.007101 0.000000 -2.361090
v 1.006511 0.700000 -2.361090
v 0.695213 1.000000 -2.768917
v 1.037420 0.000000 -3.578272
v 1.038031 1.000000 -3.578272
v 1.271899 1.000000 -3.117977
v 1.504251 0.700000 -2.659002
v 1.504974 0.000000 -2.659002
v 1.269933 0.000000 -3.114740
v 1.776940 1.000000 -3.836614
v 1.776228 0.000000 -3.836614
v 1.924846 0.000000 -3.349416
v 2.073555 0.000000 -2.863698
v 2.072742 0.700000 -2.863698
v 1.925608 1.000000 -3.349416
v 2.579877 0.000000 -3.971437
v 2.580656 1.000000 -3.971437
v 2.637986 1.000000 -3.474223
v 2.693265 0.700000 -2.977220
v 2.694127 0.000000 -2.977220
v 2.637165 0.000000 -3.474223
vt 0.013466 0.984866
vt 0.013466 0.525588
vt 0.117674 0.525588
vt 0.117674 0.984866
vt 0.188634 0.984866
vt 0.188634 0.525588
vt 0.299758 0.984866
vt 0.299758 0.525588
vt 0.452851 0.525588
vt 0.452851 0.984866
vt 0.203551 0.525588
vt 0.280097 0.525588
vt 0.280097 0.984866
vt 0.203551 0.984866
vt 0.483960 0.525588
vt 0.560507 0.525588
vt 0.560507 0.984866
vt 0.483960 0.984866
vt 0.637053 0.525588
vt 0.637053 0.984866
vt 0.664564 0.537331
vt 0.741110 0.537331
vt 0.741110 0.690424
vt 0.664564 0.690424
vt 0.817657 0.583259
vt 0.817657 0.690424
vt 0.666262 0.355296
vt 0.666262 0.278750
vt 0.819355 0.278750
vt 0.819355 0.355296
vt 0.666262 0.202203
vt 0.773427 0.202203
vt 0.203551 0.017215
vt 0.280097 0.017215
vt 0.280097 0.476493
vt 0.203551 0.476493
vt 0.188634 0.476493
vt 0.117674 0.476493
vt 0.117674 0.017215
vt 0.188634 0.017215
vt 0.483960 0.017215
vt 0.560507 0.017215
vt 0.560507 0.476493
vt 0.483960 0.476493
vt 0.637053 0.017215
vt 0.637053 0.476493
vt 0.013466 0.476493
vt 0.013466 0.017215
vt 0.299758 0.476493
vt 0.299758 0.017215
vt 0.452851 0.017215
vt 0.452851 0.476493
vt 0.452851 0.755227
vt 0.203551 0.755227
vt 0.299758 0.755227
vt 0.483960 0.755227
vt 0.560507 0.755227
vt 0.637053 0.755227
vt 0.013466 0.755227
vt 0.117674 0.755227
vt 0.280097 0.755227
vt 0.188634 0.755227
vt 0.452851 0.640407
vt 0.203551 0.640407
vt 0.299758 0.640407
vt 0.483960 0.870046
vt 0.560507 0.870046
vt 0.637053 0.870046
vt 0.013466 0.870046
vt 0.117674 0.870046
vt 0.280097 0.640407
vt 0.188634 0.870046
vt 0.299758 0.870046
vt 0.483960 0.640407
vt 0.452851 0.870046
vt 0.203551 0.870046
vt 0.280097 0.870046
vt 0.188634 0.640407
vt 0.117674 0.640407
vt 0.637053 0.640407
vt 0.013466 0.640407
vt 0.560507 0.640407
vt 0.452851 0.246854
vt 0.203551 0.246854
vt 0.299758 0.246854
vt 0.483960 0.246854
vt 0.560507 0.246854
vt 0.637053 0.246854
vt 0.013466 0.246854
vt 0.117674 0.246854
vt 0.280097 0.246854
vt 0.188634 0.246854
vt 0.299758 0.361673
vt 0.483960 0.132035
vt 0.452851 0.361673
vt 0.203551 0.361673
vt 0.280097 0.361673
vt 0.188634 0.132035
vt 0.117674 0.132035
vt 0.637053 0.132035
vt 0.013466 0.132035
vt 0.560507 0.132035
vt 0.452851 0.132035
vt 0.203551 0.132034
vt 0.299758 0.132035
vt 0.483960 0.361673
vt 0.560507 0.361673
vt 0.637053 0.361673
vt 0.013466 0.361673
vt 0.117674 0.361673
vt 0.280097 0.132034
vt 0.188634 0.361673
vt 0.452851 0.074625
vt 0.203551 0.074625
vt 0.299758 0.074625
vt 0.483960 0.419083
vt 0.560507 0.419083
vt 0.637053 0.419083
vt 0.013466 0.419083
vt 0.117674 0.419083
vt 0.280097 0.074625
vt 0.188634 0.419083
vt 0.299758 0.189444
vt 0.483960 0.304264
vt 0.452851 0.189444
vt 0.203551 0.189444
vt 0.280097 0.189444
vt 0.188634 0.304264
vt 0.117674 0.304264
vt 0.637053 0.304264
vt 0.013466 0.304264
vt 0.560507 0.304264
vt 0.452851 0.304264
vt 0.203551 0.304264
vt 0.299758 0.304264
vt 0.483960 0.189444
vt 0.560507 0.189444
vt 0.637053 0.189444
vt 0.013466 0.189444
vt 0.117674 0.189444
vt 0.280097 0.304264
vt 0.188634 0.189444
vt 0.299758 0.419083
vt 0.483960 0.074625
vt 0.452851 0.419083
vt 0.203551 0.419083
vt 0.280097 0.419083
vt 0.188634 0.074625
vt 0.117674 0.074625
vt 0.637053 0.074625
vt 0.013466 0.074625
vt 0.560507 0.074625
vt 0.452851 0.582997
vt 0.203551 0.582997
vt 0.299758 0.582997
vt 0.483960 0.927456
vt 0.560507 0.927456
vt 0.637053 0.927456
vt 0.013466 0.927456
vt 0.117674 0.927456
vt 0.280097 0.582997
vt 0.188634 0.927456
vt 0.299758 0.697817
vt 0.483960 0.812636
vt 0.452851 0.697817
vt 0.203551 0.697817
vt 0.280097 0.697817
vt 0.188634 0.812636
vt 0.117674 0.812636
vt 0.637053 0.812636
vt 0.013466 0.812636
vt 0.560507 0.812636
vt 0.452851 0.812636
vt 0.203551 0.812636
vt 0.299758 0.812636
vt 0.483960 0.697817
vt 0.560507 0.697817
vt 0.637053 0.697817
vt 0.013466 0.697817
vt 0.117674 0.697817
vt 0.280097 0.812636
vt 0.188634 0.697817
vt 0.299758 0.927456
vt 0.483960 0.582997
vt 0.452851 0.927456
vt 0.203551 0.927456
vt 0.280097 0.927456
vt 0.188634 0.582997
vt 0.117674 0.582997
vt 0.637053 0.582997
vt 0.013466 0.582997
vt 0.560507 0.582997
vn 0.000000 1.000000 -0.000000
vn 0.165995 0.966677 0.194888
vn 0.152558 0.967693 0.200740
vn 0.000000 1.000000 -0.000000
vn 0.328071 0.862560 0.385175
vn 0.305384 0.863244 0.401933
vn 1.000000 -0.000812 0.000000
vn 1.000000 -0.000515 0.000002
vn 1.000000 -0.000430 0.000003
vn 1.000000 -0.000812 0.000000
vn 1.000000 0.000019 0.000006
vn 1.000000 0.000019 0.000006
vn 0.000000 -1.000000 0.000000
vn 0.000000 -1.000000 0.000000
vn 0.000000 -1.000000 0.000000
vn 0.000000 -1.000000 0.000000
vn 0.000000 -1.000000 0.000000
vn 0.000000 -1.000000 0.000000
vn 0.646007 0.000512 0.763331
vn 0.602609 0.000505 0.798036
vn 0.602647 0.000505 0.798008
vn 0.646007 0.000512 0.763331
vn -0.612102 -0.000586 -0.790779
vn -0.612247 -0.000587 -0.790666
vn -0.656211 -0.000766 -0.754577
vn -0.656211 -0.000766 -0.754577
vn 0.000000 0.000000 1.000000
vn -0.003504 0.000000 0.999994
vn -0.002720 0.000000 0.999996
vn 0.000000 0.000000 1.000000
vn -0.007659 0.000000 0.999971
vn -0.007659 0.000000 0.999971
vn 0.000000 1.000000 0.000000
vn 0.275861 0.961196 0.001716
vn 0.266409 0.963766 0.013443
vn 0.000000 1.000000 0.000000
vn 0.520187 0.854046 0.003236
vn 0.519927 0.853835 0.025336
vn 0.000000 -1.000000 0.000000
vn 0.000000 -1.000000 0.000000
vn 0.000000 -1.000000 0.000000
vn 0.000000 -1.000000 0.000000
vn 0.000000 -1.000000 0.000000
vn 0.000000 -1.000000 0.000000
vn 1.000000 0.000025 -0.000404
vn 0.999049 0.000062 0.043613
vn 0.999049 0.000062 0.043612
vn 1.000000 0.000025 -0.000404
vn -0.997956 0.000023 -0.063901
vn -0.997956 0.000023 -0.063901
vn -0.999817 0.000009 -0.019137
vn -0.999817 0.000009 -0.019137
vn -0.067101 0.000053 -0.997746
vn -0.098733 0.000076 -0.995114
vn -0.098702 0.000076 -0.995117
vn -0.067101 0.000053 -0.997746
vn 0.000000 -1.000000 0.000000
vn 0.000000 -1.000000 0.000000
vn 0.000000 -1.000000 0.000000
vn 0.000000 -1.000000 0.000000
vn 0.000000 -1.000000 0.000000
vn 0.000000 -1.000000 0.000000
vn 0.109712 0.000134 0.993963
vn 0.109660 0.000134 0.993969
vn 0.075251 0.000093 0.997165
vn 0.075251 0.000093 0.997165
vn 0.028079 0.964794 0.261505
vn 0.054832 0.857597 0.511392
vn 0.037572 0.857034 0.513888
vn 0.018644 0.966760 0.255005
vn 0.000000 1.000000 0.000000
vn 0.000000 1.000000 0.000000
vn -0.330038 0.000218 -0.943968
vn -0.330074 0.000218 -0.943955
vn -0.421297 0.000254 -0.906923
vn -0.421265 0.000254 -0.906938
vn 0.000000 -1.000000 0.000000
vn 0.000000 -1.000000 0.000000
vn 0.000000 -1.000000 0.000000
vn 0.000000 -1.000000 0.000000
vn 0.000000 -1.000000 0.000000
vn 0.000000 -1.000000 0.000000
vn 0.424734 0.000434 0.905318
vn 0.424682 0.000434 0.905342
vn 0.338725 0.000371 0.940885
vn 0.338780 0.000371 0.940866
vn 0.108608 0.967021 0.230378
vn 0.214299 0.863574 0.456416
vn 0.169629 0.862576 0.476643
vn 0.086516 0.966499 0.241649
vn 0.000000 1.000000 0.000000
vn 0.000000 1.000000 0.000000
vn -0.242367 0.000172 -0.970185
vn -0.242404 0.000172 -0.970176
vn 0.065874 0.965530 0.251817
vn 0.000000 1.000000 0.000000
vn 0.128002 0.860690 0.492776
vn 0.257035 0.000296 0.966402
vn 0.257091 0.000296 0.966387
vn 0.000000 -1.000000 0.000000
vn 0.000000 -1.000000 0.000000
vn 0.000000 -1.000000 0.000000
vn -0.737687 -0.000407 -0.675143
vn -0.775154 -0.000266 -0.631772
vn -0.775069 -0.000267 -0.631877
vn -0.737687 -0.000407 -0.675143
vn 0.000000 -1.000000 0.000000
vn 0.000000 -1.000000 0.000000
vn 0.000000 -1.000000 0.000000
vn 0.000000 -1.000000 0.000000
vn 0.000000 -1.000000 0.000000
vn 0.000000 -1.000000 0.000000
vn 0.767872 0.000490 0.640604
vn 0.767852 0.000490 0.640627
vn 0.729146 0.000504 0.684358
vn 0.729146 0.000504 0.684358
vn 0.195174 0.967241 0.162331
vn 0.391922 0.860907 0.324402
vn 0.371471 0.861363 0.346502
vn 0.182626 0.968312 0.170351
vn 0.000000 1.000000 -0.000000
vn 0.000000 1.000000 0.000000
vn -0.895967 0.000114 -0.444121
vn -0.896001 0.000114 -0.444053
vn -0.938160 0.000180 -0.346201
vn -0.938144 0.000180 -0.346246
vn 0.000000 1.000000 0.000000
vn 0.243504 0.965700 0.090167
vn 0.230353 0.966219 0.115573
vn 0.000000 1.000000 0.000000
vn 0.486305 0.855510 0.177793
vn 0.461159 0.857244 0.229054
vn 0.938688 0.000317 0.344768
vn 0.938685 0.000317 0.344775
vn 0.894378 0.000389 0.447311
vn 0.894385 0.000389 0.447298
vn 0.000000 -1.000000 0.000000
vn 0.000000 -1.000000 0.000000
vn 0.000000 -1.000000 0.000000
vn 0.000000 -1.000000 0.000000
vn 0.000000 -1.000000 0.000000
vn 0.000000 -1.000000 0.000000
vn -0.968663 0.000163 -0.248378
vn -0.968657 0.000163 -0.248402
vn 0.000000 -1.000000 0.000000
vn 0.000000 -1.000000 0.000000
vn 0.000000 -1.000000 0.000000
vn 0.970296 0.000238 0.241922
vn 0.970295 0.000238 0.241926
vn 0.253220 0.965278 0.064177
vn 0.504473 0.854209 0.125835
vn 0.000000 1.000000 0.000000
vn -0.988223 0.000083 -0.153018
vn -0.988224 0.000083 -0.153017
vn 0.000000 -1.000000 0.000000
vn 0.000000 -1.000000 0.000000
vn 0.000000 -1.000000 0.000000
vn 0.990064 0.000149 0.140618
vn 0.990064 0.000149 0.140617
vn 0.515698 0.853552 0.074191
vn 0.259373 0.965025 0.038120
vn 0.000000 1.000000 0.000000
vn -0.841505 -0.000031 -0.540249
vn -0.841562 -0.000031 -0.540160
vn 0.000000 -1.000000 0.000000
vn 0.000000 -1.000000 0.000000
vn 0.000000 -1.000000 0.000000
vn 0.837153 0.000449 0.546969
vn 0.837165 0.000449 0.546950
vn 0.429411 0.859135 0.278376
vn 0.214067 0.966761 0.139814
vn 0.000000 1.000000 -0.000000
vn -0.517283 -0.000068 -0.855814
vn -0.517312 -0.000068 -0.855797
vn 0.000000 -1.000000 0.000000
vn 0.000000 -1.000000 0.000000
vn 0.000000 -1.000000 0.000000
vn 0.513494 0.000479 0.858093
vn 0.513540 0.000479 0.858066
vn 0.259772 0.863673 0.431958
vn 0.130707 0.967417 0.216841
vn 0.000000 1.000000 0.000000
vn -0.165428 0.000124 -0.986222
vn -0.165461 0.000124 -0.986216
vn 0.000000 -1.000000 0.000000
vn 0.000000 -1.000000 0.000000
vn 0.000000 -1.000000 0.000000
vn 0.179924 0.000215 0.983681
vn 0.179980 0.000215 0.983670
vn 0.089931 0.858830 0.504305
vn 0.046438 0.964825 0.258759
vn 0.000000 1.000000 0.000000
s 1
g OutsideBend
usemtl initialShadingGroup
f 4/11/1 5/12/2 90/161/3 85/154/4
f 5/5/2 6/4/5 89/160/6 90/162/3
s 2
f 7/21/7 8/22/8 11/23/9 10/24/10
f 8/22/8 9/25/11 12/26/12 11/23/9
s 3
f 86/156/13 87/157/14 2/17/15 1/18/16
f 87/157/14 88/158/17 3/20/18 2/17/15
s 4
f 3/1/19 88/159/20 89/160/21 6/4/22
s 5
f 85/153/23 86/155/24 1/8/25 4/9/26
s 6
f 13/27/27 14/28/28 17/29/29 16/30/30
f 14/28/28 15/31/31 18/32/32 17/29/29
s 7
f 16/33/33 17/34/34 66/121/35 61/114/36
f 17/37/34 18/38/37 65/120/38 66/122/35
s 8
f 62/116/39 63/117/40 14/43/41 13/44/42
f 63/117/40 64/118/43 15/46/44 14/43/41
s 9
f 15/47/45 64/119/46 65/120/47 18/38/48
s 10
f 61/113/49 62/115/50 13/50/51 16/51/52
s 5
f 10/7/53 103/183/54 104/185/55 7/10/56
s 3
f 10/15/57 11/16/58 108/192/59 103/184/60
f 11/16/58 12/19/61 107/190/62 108/192/59
s 4
f 106/189/63 107/191/64 12/2/65 9/3/66
s 1
f 105/188/67 106/189/68 9/3/69 8/6/70
f 104/186/71 105/187/67 8/13/70 7/14/72
s 5
f 25/53/73 26/55/74 91/163/75 92/165/76
s 3
f 26/56/77 27/57/78 96/172/79 91/164/80
f 27/57/78 28/58/81 95/170/82 96/172/79
s 4
f 94/169/83 95/171/84 28/59/85 29/60/86
s 1
f 93/168/87 94/169/88 29/60/89 30/62/90
f 92/166/91 93/167/87 30/61/90 25/54/92
s 5
f 97/173/93 98/175/94 26/55/74 25/53/73
s 1
f 25/54/92 30/61/90 102/181/95 97/174/96
f 30/62/90 29/60/89 101/180/97 102/182/95
s 4
f 29/60/86 28/59/85 100/179/98 101/180/99
s 3
f 99/177/100 100/178/101 28/58/81 27/57/78
f 98/176/102 99/177/100 27/57/78 26/56/77
s 10
f 22/49/103 79/143/104 80/145/105 19/52/106
s 8
f 22/41/107 23/42/108 84/152/109 79/144/110
f 23/42/108 24/45/111 83/150/112 84/152/109
s 9
f 82/149/113 83/151/114 24/48/115 21/39/116
s 7
f 81/148/117 82/149/118 21/39/119 20/40/120
f 80/146/121 81/147/117 20/35/120 19/36/122
s 10
f 73/133/123 74/135/124 44/85/125 43/83/126
s 7
f 43/84/127 48/91/128 78/141/129 73/134/130
f 48/92/128 47/90/131 77/140/132 78/142/129
s 9
f 47/90/133 46/89/134 76/139/135 77/140/136
s 8
f 75/137/137 76/138/138 46/88/139 45/87/140
f 74/136/141 75/137/137 45/87/140 44/86/142
s 10
f 43/83/126 44/85/125 67/123/143 68/125/144
s 8
f 44/86/142 45/87/140 72/132/145 67/124/146
f 45/87/140 46/88/139 71/130/147 72/132/145
s 9
f 70/129/148 71/131/149 46/89/134 47/90/133
s 7
f 69/128/150 70/129/151 47/90/131 48/92/128
f 68/126/152 69/127/150 48/91/128 43/84/127
s 10
f 55/103/153 56/105/154 62/115/50 61/113/49
s 8
f 56/106/155 57/107/156 63/117/40 62/116/39
f 57/107/156 58/108/157 64/118/43 63/117/40
s 9
f 65/120/47 64/119/46 58/109/158 59/110/159
s 7
f 66/122/35 65/120/38 59/110/160 60/112/161
f 61/114/36 66/121/35 60/111/161 55/104/162
s 10
f 68/125/144 67/123/143 56/105/154 55/103/153
s 7
f 55/104/162 60/111/161 69/127/150 68/126/152
f 60/112/161 59/110/160 70/129/151 69/128/150
s 9
f 59/110/159 58/109/158 71/131/149 70/129/148
s 8
f 72/132/145 71/130/147 58/108/157 57/107/156
f 67/124/146 72/132/145 57/107/156 56/106/155
s 10
f 50/95/163 49/93/164 74/135/124 73/133/123
s 8
f 49/94/165 54/102/166 75/137/137 74/136/141
f 54/102/166 53/100/167 76/138/138 75/137/137
s 9
f 77/140/136 76/139/135 53/101/168 52/99/169
s 7
f 78/142/129 77/140/132 52/99/170 51/98/171
f 73/134/130 78/141/129 51/97/171 50/96/172
s 10
f 80/145/105 79/143/104 49/93/164 50/95/163
s 7
f 50/96/172 51/97/171 81/147/117 80/146/121
f 51/98/171 52/99/170 82/149/118 81/148/117
s 9
f 52/99/169 53/101/168 83/151/114 82/149/113
s 8
f 84/152/109 83/150/112 53/100/167 54/102/166
f 79/144/110 84/152/109 54/102/166 49/94/165
s 5
f 31/63/173 32/65/174 86/155/24 85/153/23
s 3
f 32/66/175 33/67/176 87/157/14 86/156/13
f 33/67/176 34/68/177 88/158/17 87/157/14
s 4
f 89/160/21 88/159/20 34/69/178 35/70/179
s 1
f 90/162/3 89/160/6 35/70/180 36/72/181
f 85/154/4 90/161/3 36/71/181 31/64/182
s 5
f 92/165/76 91/163/75 32/65/174 31/63/173
s 1
f 31/64/182 36/71/181 93/167/87 92/166/91
f 36/72/181 35/70/180 94/169/88 93/168/87
s 4
f 35/70/179 34/69/178 95/171/84 94/169/83
s 3
f 96/172/79 95/170/82 34/68/177 33/67/176
f 91/164/80 96/172/79 33/67/176 32/66/175
s 5
f 38/75/183 37/73/184 98/175/94 97/173/93
s 3
f 37/74/185 42/82/186 99/177/100 98/176/102
f 42/82/186 41/80/187 100/178/101 99/177/100
s 4
f 101/180/99 100/179/98 41/81/188 40/79/189
s 1
f 102/182/95 101/180/97 40/79/190 39/78/191
f 97/174/96 102/181/95 39/77/191 38/76/192
s 5
f 104/185/55 103/183/54 37/73/184 38/75/183
s 1
f 38/76/192 39/77/191 105/187/67 104/186/71
f 39/78/191 40/79/190 106/189/68 105/188/67
s 4
f 40/79/189 41/81/188 107/191/64 106/189/63
s 3
f 108/192/59 107/190/62 41/80/187 42/82/186
f 103/184/60 108/192/59 42/82/186 37/74/185
