# This file uses centimeters as units for non-parametric coordinates.

mtllib Wall_LP.mtl
g default
v -1.000000 0.000000 0.000000
v -0.500000 0.000000 0.000000
v 0.000000 0.000000 0.000000
v -1.000000 1.000000 0.000000
v -0.500000 1.000000 0.000000
v 0.000000 0.700000 0.000000
v -1.000000 1.000000 -3.000000
v -0.500000 1.000000 -3.000000
v 0.000000 0.700000 -3.000000
v -1.000000 0.000000 -3.000000
v -0.500000 0.000000 -3.000000
v 0.000000 0.000000 -3.000000
vt 0.013466 0.476493
vt 0.013466 0.017215
vt 0.117674 0.017215
vt 0.117674 0.476493
vt 0.188634 0.476493
vt 0.188634 0.017215
vt 0.299758 0.476493
vt 0.299758 0.017215
vt 0.452851 0.017215
vt 0.452851 0.476493
vt 0.203551 0.017215
vt 0.280097 0.017215
vt 0.280097 0.476493
vt 0.203551 0.476493
vt 0.483960 0.017215
vt 0.560507 0.017215
vt 0.560507 0.476493
vt 0.483960 0.476493
vt 0.637053 0.017215
vt 0.637053 0.476493
vt 0.666262 0.355296
vt 0.666262 0.278750
vt 0.819355 0.278750
vt 0.819355 0.355296
vt 0.666262 0.202203
vt 0.773427 0.202203
vt 0.664564 0.028959
vt 0.741110 0.028959
vt 0.741110 0.182052
vt 0.664564 0.182052
vt 0.817657 0.074887
vt 0.817657 0.182052
vn 0.000000 0.000000 1.000000
vn 0.000000 0.000000 1.000000
vn 0.000000 0.000000 1.000000
vn 0.000000 0.000000 1.000000
vn 0.000000 0.000000 1.000000
vn 0.000000 0.000000 1.000000
vn 0.000000 1.000000 0.000000
vn 0.287348 0.957826 0.000000
vn 0.287348 0.957826 0.000000
vn 0.000000 1.000000 0.000000
vn 0.514496 0.857493 0.000000
vn 0.514496 0.857493 0.000000
vn 0.000000 0.000000 -1.000000
vn 0.000000 0.000000 -1.000000
vn 0.000000 0.000000 -1.000000
vn 0.000000 0.000000 -1.000000
vn 0.000000 0.000000 -1.000000
vn 0.000000 0.000000 -1.000000
vn 0.000000 -1.000000 0.000000
vn 0.000000 -1.000000 0.000000
vn 0.000000 -1.000000 0.000000
vn 0.000000 -1.000000 0.000000
vn 0.000000 -1.000000 0.000000
vn 0.000000 -1.000000 0.000000
vn 1.000000 0.000000 0.000000
vn 1.000000 0.000000 0.000000
vn 1.000000 0.000000 0.000000
vn 1.000000 0.000000 0.000000
vn -1.000000 0.000000 0.000000
vn -1.000000 0.000000 0.000000
vn -1.000000 0.000000 0.000000
vn -1.000000 0.000000 0.000000
s 1
g Wall
usemtl initialShadingGroup
f 1/21/1 2/22/2 5/23/3 4/24/4
f 2/22/2 3/25/5 6/26/6 5/23/3
s 2
f 4/11/7 5/12/8 8/13/9 7/14/10
f 5/5/8 6/4/11 9/3/12 8/6/9
s 3
f 7/27/13 8/28/14 11/29/15 10/30/16
f 8/28/14 9/31/17 12/32/18 11/29/15
s 4
f 10/15/19 11/16/20 2/17/21 1/18/22
f 11/16/20 12/19/23 3/20/24 2/17/21
s off
f 3/1/25 12/2/26 9/3/27 6/4/28
f 10/7/29 1/8/30 4/9/31 7/10/32
